<svg id="Layer_2" enable-background="new 0 0 64 64" height="512" viewBox="0 0 64 64" width="512" xmlns="http://www.w3.org/2000/svg"><g><g><g><path d="m56 55c0 1.66-1.34 3-3 3-.16 0-.31-.01-.46-.03l-.01.01c-.34-.59-.53-1.26-.53-1.98 0-1.1.45-2.1 1.17-2.83.35-.35.77-.63 1.23-.83.95.51 1.6 1.5 1.6 2.66z" fill="#ef7385"/></g><g><path d="m58.83 53.17c.72.73 1.17 1.73 1.17 2.83s-.45 2.1-1.17 2.83c-.73.72-1.73 1.17-2.83 1.17s-2.1-.45-2.83-1.17c-.25-.25-.47-.54-.64-.85l.01-.01c.15.02.3.03.46.03 1.66 0 3-1.34 3-3 0-1.16-.65-2.15-1.6-2.66.49-.22 1.03-.34 1.6-.34 1.1 0 2.1.45 2.83 1.17z" fill="#ed5565"/></g><g><circle cx="7" cy="51" fill="#ef7385" r="3"/></g><g><circle cx="12" cy="6" fill="#ef7385" r="2"/></g><g><circle cx="56" cy="8" fill="#ef7385" r="2"/></g><g><path d="m41.5 44h6.5v3.71c0 2.66-1.66 4.94-4 5.86-.71.28-1.48.43-2.29.43-1.39 0-2.71-.46-3.77-1.26-1.06-.79-1.88-1.92-2.27-3.26l-2.54-8.64c-.75-2.55-1.13-5.19-1.13-7.84 0-.83.34-1.58.88-2.12s1.29-.88 2.12-.88 1.58.34 2.12.88.88 1.29.88 2.12v4l1 2z" fill="#f0d0b4"/></g><g><path d="m48 41.09v2.91h-6.5l-2.5-5 4.23-4.23c.04-.04.07-.07.1-.11l2.16 1.55c1.57 1.12 2.51 2.94 2.51 4.88z" fill="#5cd6b3"/></g><g><path d="m44.56 6h-.28c-.18 0-.37.02-.56.05l-3.39.56c-1.22.21-2.33-.74-2.33-1.97v-.81c0-1.01-.82-1.83-1.83-1.83-.11 0-.23.01-.34.03l-13.67 2.56c-.62.12-1.16.45-1.55.91-.38.47-.61 1.06-.61 1.7 0 .52.15 1.03.44 1.47l.11.15c.73 1.1.22 2.59-1.03 3.01l-1.46.48c-1.23.41-2.06 1.56-2.06 2.86 0 .54.15 1.08.43 1.54l1.83 3.06h.01c.46-1.04 1.51-1.77 2.73-1.77h1 20 1c.8 0 1.53.32 2.06.82l2.76-8.29c.12-.35.18-.72.18-1.09 0-1.9-1.54-3.44-3.44-3.44z" fill="#b27946"/></g><g><path d="m32 15-1.55-1.55c-.928-.928-2.187-1.45-3.5-1.45-2.734 0-4.95 2.216-4.95 4.95v7.05c0 1.801.595 3.463 1.6 4.801h16.8c1.005-1.338 1.6-3 1.6-4.801v-9z" fill="#f0d0b4"/></g><g><path d="m45.06 18.82c.58.55.94 1.32.94 2.18 0 .83-.34 1.58-.88 2.12s-1.29.88-2.12.88h-1v-6h1c.8 0 1.53.32 2.06.82z" fill="#f0d0b4"/></g><g><path d="m44 53.57v8.43h-24v-8.43c.71.28 1.48.43 2.29.43 1.39 0 2.71-.46 3.77-1.26 1.06-.79 1.88-1.92 2.27-3.26l2.54-8.64c.75-2.55 1.13-5.19 1.13-7.84 0 2.65.38 5.29 1.13 7.84l2.54 8.64c.39 1.34 1.21 2.47 2.27 3.26 1.06.8 2.38 1.26 3.77 1.26.81 0 1.58-.15 2.29-.43z" fill="#5cd6b3"/></g><g><path d="m44 32.91c0 .65-.24 1.27-.67 1.75-.03.04-.06.07-.1.11l-4.23 4.23-1-2v-4c0-.83-.34-1.58-.88-2.12s-1.29-.88-2.12-.88-1.58.34-2.12.88-.88 1.29-.88 2.12c0-.83-.34-1.58-.88-2.12s-1.29-.88-2.12-.88-1.58.34-2.12.88-.88 1.29-.88 2.12v4l-1 2-4.23-4.23c-.04-.04-.07-.07-.1-.11-.43-.48-.67-1.1-.67-1.75 0-1.14.73-2.15 1.81-2.51l.4-.14c.51-.17.92-.53 1.16-1l.21-.43c.01-.01.01-.02.02-.03.44-.86 1.09-1.55 1.87-2.03.8-.49 1.73-.77 2.7-.77.55 0 1.1.09 1.62.26l1.26.42c.31.1.63.16.95.16s.64-.06.95-.16l1.26-.42c.52-.17 1.07-.26 1.62-.26 1.93 0 3.7 1.09 4.57 2.8.01.01.01.02.02.03l.21.43c.24.47.65.83 1.16 1l.4.14c1.08.36 1.81 1.37 1.81 2.51z" fill="#fcd770"/></g><g><path d="m22.5 44 2.5-5 1-2v-4c0-.83.34-1.58.88-2.12s1.29-.88 2.12-.88 1.58.34 2.12.88.88 1.29.88 2.12c0 2.65-.38 5.29-1.13 7.84l-2.54 8.64c-.39 1.34-1.21 2.47-2.27 3.26-1.06.8-2.38 1.26-3.77 1.26-.81 0-1.58-.15-2.29-.43-2.34-.92-4-3.2-4-5.86v-3.71z" fill="#f0d0b4"/></g><g><path d="m25 39-2.5 5h-6.5v-2.91c0-1.94.94-3.76 2.51-4.88l2.16-1.55c.03.04.06.07.1.11z" fill="#5cd6b3"/></g><g><path d="m22 18v6h-1c-.83 0-1.58-.34-2.12-.88s-.88-1.29-.88-2.12c0-.44.1-.86.27-1.23.46-1.04 1.51-1.77 2.73-1.77z" fill="#f0d0b4"/></g><g><path d="m9.621 16.621c-.397-.398-.937-.621-1.5-.621-1.171 0-2.121.95-2.121 2.121 0 .563.224 1.102.621 1.5l.964.964c1.261 1.261.368 3.415-1.413 3.415h-2.172c-1.105 0-2 .895-2 2s.895 2 2 2h3.172c1.782 0 2.674 2.154 1.414 3.414l-3.964 3.964c-.398.398-.622.938-.622 1.501 0 1.171.95 2.121 2.121 2.121.563 0 1.102-.224 1.5-.621l7.379-7.379v-9z" fill="#69d6f4"/></g><g><path d="m60 24h-2.172c-1.782 0-2.674-2.154-1.414-3.414l.964-.964c.398-.398.621-.937.621-1.5.001-1.172-.949-2.122-2.12-2.122-.563 0-1.102.223-1.5.621l-5.379 5.379v9l7.379 7.379c.398.398.937.621 1.5.621 1.171 0 2.121-.95 2.121-2.121 0-.563-.224-1.102-.621-1.5l-3.964-3.964c-1.261-1.261-.368-3.415 1.413-3.415h3.172c1.105 0 2-.895 2-2s-.895-2-2-2z" fill="#69d6f4"/></g></g><path d="m25.445 18.832 1.752 1.168-1.752 1.168 1.11 1.664 4.248-2.832-4.248-2.832z"/><path d="m37.445 17.168-4.248 2.832 4.248 2.832 1.11-1.664-1.752-1.168 1.752-1.168z"/><path d="m36 11.172h2v5.657h-2z" transform="matrix(.707 -.707 .707 .707 .938 30.264)"/><path d="m49 47.708v-6.62c0-2.255-1.096-4.385-2.932-5.696l-1.395-.996c.209-.464.327-.967.327-1.491 0-1.57-1.001-2.959-2.491-3.456l-.407-.136c-.231-.077-.412-.239-.535-.445.757-1.171 1.219-2.485 1.371-3.868h.062c2.206 0 4-1.794 4-4 0-.901-.31-1.724-.815-2.393l2.587-7.76c.151-.454.228-.927.228-1.406 0-2.449-1.992-4.441-4.441-4.441h-.274c-.245 0-.489.021-.73.061l-3.391.565c-.293.05-.582-.03-.81-.224-.229-.193-.354-.464-.354-.763v-.809c0-1.734-1.628-3.104-3.351-2.781l-13.673 2.563c-1.725.324-2.976 1.832-2.976 3.586 0 .723.212 1.423.612 2.022l.104.155c.174.262.216.582.114.88-.102.297-.331.524-.629.623l-1.46.487c-1.64.547-2.741 2.074-2.741 3.802 0 .728.198 1.44.571 2.062l1.602 2.67c-.101.352-.173.716-.173 1.101 0 2.206 1.794 4 4 4h.061c.152 1.383.614 2.697 1.371 3.868-.122.206-.304.368-.535.445l-.407.136c-1.489.497-2.49 1.886-2.49 3.456 0 .523.118 1.026.327 1.49l-1.395.996c-1.836 1.312-2.932 3.442-2.932 5.697v6.62c0 2.836 1.63 5.292 4 6.498v8.794h26v-8.794c2.37-1.206 4-3.662 4-6.498zm-2-6.62v1.912h-4.882l-1.901-3.803 3.225-3.225 1.464 1.046c1.311.938 2.094 2.46 2.094 4.07zm-4-18.088v-4c1.103 0 2 .897 2 2s-.897 2-2 2zm-24.628-9.736 1.46-.487c.894-.298 1.583-.979 1.888-1.871.306-.892.182-1.854-.34-2.638l-.104-.155c-.18-.272-.276-.589-.276-.915 0-.793.566-1.475 1.345-1.621l13.67-2.562c.498-.098.985.305.985.815v.809c0 .884.387 1.719 1.061 2.29.675.571 1.562.816 2.432.67l3.391-.565c.133-.023.266-.034.401-.034h.274c1.346 0 2.441 1.095 2.441 2.441 0 .263-.042.522-.125.772l-2.363 7.087c-.467-.19-.977-.3-1.512-.3v-2h-2v9c0 1.041-.241 2.04-.673 2.961-1.14-1.236-2.751-1.961-4.495-1.961-.659 0-1.311.105-1.938.314l-.894.298v-2.612h-2v2.612l-.895-.299c-.626-.208-1.278-.313-1.937-.313-1.744 0-3.355.725-4.495 1.961-.432-.921-.673-1.92-.673-2.961v-7.05c0-2.178 1.772-3.95 3.95-3.95 1.055 0 2.047.411 2.793 1.157l2.55 2.55 1.414-1.414-2.55-2.55c-1.124-1.124-2.618-1.743-4.207-1.743-3.281 0-5.95 2.669-5.95 5.95v.05c-1.01 0-1.923.389-2.628 1.009l-1.086-1.81c-.187-.311-.286-.668-.286-1.032 0-.865.551-1.63 1.372-1.903zm.628 7.736c0-1.103.897-2 2-2v4c-1.103 0-2-.897-2-2zm3.124 10.346.407-.136c.761-.253 1.376-.788 1.735-1.504l.212-.425c.703-1.407 2.117-2.281 3.69-2.281.444 0 .883.071 1.305.211l1.263.422c.815.271 1.713.272 2.53-.001l1.262-.42c.421-.141.86-.212 1.304-.212 1.573 0 2.987.874 3.69 2.281l.212.425c.358.716.974 1.251 1.735 1.504l.406.136c.673.224 1.125.851 1.125 1.559 0 .438-.171.852-.481 1.162l-3.244 3.244-.275-.547v-3.764c0-2.206-1.794-4-4-4-1.2 0-2.266.542-3 1.382-.734-.84-1.8-1.382-3-1.382-2.206 0-4 1.794-4 4v3.764l-.274.548-3.244-3.244c-.311-.311-.482-.724-.482-1.163 0-.708.452-1.335 1.124-1.559zm-3.03 5.673 1.465-1.046 3.225 3.225-1.902 3.802h-4.882v-1.912c0-1.61.783-3.132 2.094-4.069zm-2.094 10.689v-2.708h3.882l-1.776 3.553 1.789.895 6.105-12.212v-4.236c0-1.103.897-2 2-2s2 .897 2 2c0 2.56-.366 5.102-1.088 7.556l-2.542 8.646c-.659 2.236-2.746 3.798-5.078 3.798-2.918 0-5.292-2.374-5.292-5.292zm26 13.292h-22v-6.122c.42.076.85.122 1.292.122 3.212 0 6.089-2.152 6.996-5.234l2.542-8.646c.064-.219.11-.442.169-.663.059.22.105.444.169.663l2.542 8.646c.909 3.082 3.786 5.234 6.998 5.234.442 0 .872-.046 1.292-.122zm-1.292-8c-2.332 0-4.419-1.562-5.077-3.799l-2.542-8.646c-.723-2.453-1.089-4.995-1.089-7.555 0-1.103.897-2 2-2s2 .897 2 2v4.236l6.105 12.211 1.789-.895-1.776-3.552h3.882v2.708c0 2.918-2.374 5.292-5.292 5.292z"/><path d="m1 26c0 1.654 1.346 3 3 3h3.171c.62 0 .864.473.924.617s.222.651-.217 1.09l-3.965 3.965c-.58.581-.913 1.385-.913 2.207 0 1.721 1.4 3.121 3.121 3.121.834 0 1.618-.324 2.207-.914l7.379-7.379-1.414-1.414-7.379 7.379c-.212.212-.493.328-.793.328-.618 0-1.121-.503-1.121-1.121 0-.295.12-.584.328-.793l3.965-3.965c.875-.874 1.124-2.127.65-3.27-.473-1.141-1.535-1.851-2.772-1.851h-3.171c-.551 0-1-.448-1-1s.449-1 1-1h2.171c1.237 0 2.299-.71 2.772-1.852.473-1.143.224-2.396-.65-3.27l-.965-.965c-.208-.208-.328-.497-.328-.792 0-.618.503-1.121 1.121-1.121.3 0 .581.116.793.328l5.379 5.379 1.414-1.414-5.379-5.379c-.589-.59-1.373-.914-2.207-.914-1.721 0-3.121 1.4-3.121 3.121 0 .822.333 1.626.914 2.207l.965.965c.438.438.277.945.217 1.09s-.304.617-.925.617h-2.171c-1.654 0-3 1.346-3 3z"/><path d="m60 23h-2.171c-.62 0-.864-.473-.924-.617s-.222-.651.217-1.09l.965-.965c.58-.581.913-1.385.913-2.207 0-1.721-1.4-3.121-3.121-3.121-.834 0-1.618.324-2.207.914l-5.379 5.379 1.414 1.414 5.379-5.379c.212-.212.493-.328.793-.328.618 0 1.121.503 1.121 1.121 0 .295-.12.584-.328.793l-.965.965c-.875.874-1.124 2.127-.65 3.27.473 1.141 1.535 1.851 2.772 1.851h2.171c.551 0 1 .448 1 1s-.449 1-1 1h-3.171c-1.237 0-2.299.71-2.772 1.852-.473 1.143-.224 2.396.65 3.27l3.965 3.965c.208.208.328.497.328.792 0 .618-.503 1.121-1.121 1.121-.3 0-.581-.116-.793-.328l-7.379-7.379-1.414 1.414 7.379 7.379c.589.59 1.373.914 2.207.914 1.721 0 3.121-1.4 3.121-3.121 0-.822-.333-1.626-.914-2.207l-3.965-3.965c-.438-.438-.277-.945-.217-1.09s.304-.617.925-.617h3.171c1.654 0 3-1.346 3-3s-1.346-3-3-3z"/><path d="m60.167 53.247 1.54-1.54-1.414-1.414-1.54 1.54c-.525-.348-1.116-.602-1.753-.732v-2.101h-2v2.101c-.637.13-1.229.384-1.753.732l-1.54-1.54-1.414 1.414 1.54 1.54c-.348.524-.602 1.116-.732 1.753h-2.101v2h2.101c.13.637.384 1.228.732 1.753l-1.54 1.54 1.414 1.414 1.54-1.54c.525.348 1.116.602 1.753.732v2.101h2v-2.101c.637-.13 1.229-.384 1.753-.732l1.54 1.54 1.414-1.414-1.54-1.54c.348-.524.602-1.116.732-1.753h2.101v-2h-2.101c-.13-.637-.384-1.228-.732-1.753zm-5.841.265c.421.374.674.908.674 1.488 0 1.041-.803 1.89-1.821 1.982-.108-.309-.179-.636-.179-.982 0-1.035.527-1.949 1.326-2.488zm1.674 5.488c-.499 0-.963-.134-1.378-.351 1.398-.624 2.378-2.021 2.378-3.649 0-.699-.186-1.365-.514-1.951 1.423.234 2.514 1.463 2.514 2.951 0 1.654-1.346 3-3 3z"/><path d="m8 47.142v-2.142h-2v2.142c-1.399.364-2.494 1.459-2.858 2.858h-2.142v2h2.142c.364 1.399 1.459 2.494 2.858 2.858v2.142h2v-2.142c1.399-.364 2.494-1.459 2.858-2.858h2.142v-2h-2.142c-.364-1.399-1.459-2.494-2.858-2.858zm-1 5.858c-1.103 0-2-.897-2-2s.897-2 2-2 2 .897 2 2-.897 2-2 2z"/><path d="m11 1v2.184c-.847.302-1.514.969-1.816 1.816h-2.184v2h2.184c.302.847.969 1.514 1.816 1.816v2.184h2v-2.184c.847-.302 1.514-.969 1.816-1.816h2.184v-2h-2.184c-.302-.847-.969-1.514-1.816-1.816v-2.184zm1 6c-.551 0-1-.448-1-1s.449-1 1-1 1 .448 1 1-.449 1-1 1z"/><path d="m55 3v2.184c-.847.302-1.514.969-1.816 1.816h-2.184v2h2.184c.302.847.969 1.514 1.816 1.816v2.184h2v-2.184c.847-.302 1.514-.969 1.816-1.816h2.184v-2h-2.184c-.302-.847-.969-1.514-1.816-1.816v-2.184zm1 6c-.551 0-1-.448-1-1s.449-1 1-1 1 .448 1 1-.449 1-1 1z"/><path d="m3 11h2v2h-2z"/><path d="m10 41h2v2h-2z"/><path d="m15 57h2v2h-2z"/><path d="m11 61h2v2h-2z"/><path d="m51 41h2v2h-2z"/><path d="m57 45h2v2h-2z"/><path d="m49 1h2v2h-2z"/></g></svg>