<svg id="Capa_1" enable-background="new 0 0 512 512" height="512" viewBox="0 0 512 512" width="512" xmlns="http://www.w3.org/2000/svg"><path d="m47.361 174.333-10.052-150.935c-.761-11.429 11.135-19.396 21.414-14.341l135.739 66.762z" fill="#ff9838"/><path d="m400.288 174.333 10.052-150.935c.761-11.429-11.135-19.396-21.414-14.341l-135.739 66.762z" fill="#ff9838"/><path d="m159.242 99.406 35.22-23.587-135.739-66.762c-10.279-5.055-22.175 2.912-21.414 14.341l1.104 16.579z" fill="#ff8709"/><path d="m388.926 9.057-16.469 8.1c.715 1.902 1.065 4.001.917 6.241l-8.474 127.235 35.388 23.699 10.052-150.934c.761-11.429-11.136-19.396-21.414-14.341z" fill="#ff8709"/><path d="m227.062 42.732h-6.475c-101.241 0-183.313 82.072-183.313 183.313v13.875c0 57.97 46.994 104.963 104.963 104.963h163.174c57.97 0 104.963-46.994 104.963-104.963v-13.875c.001-101.241-82.071-183.313-183.312-183.313z" fill="#ffaa5c"/><path d="m265.037 46.656c48.178 33.003 79.793 88.42 79.793 151.228v14.072c0 57.93-46.962 104.892-104.892 104.892h-163.317c-2.019 0-4.024-.063-6.015-.176 18.741 17.497 43.898 28.211 71.56 28.211h163.317c57.93 0 104.892-46.962 104.892-104.892v-14.071c0-88.195-62.329-161.824-145.338-179.264z" fill="#ff9838"/><path d="m237.078 245.678 11.714-20.289c4.118-7.133-1.03-16.048-9.266-16.048h-29.314c-8.236 0-13.383 8.916-9.265 16.048l11.714 20.289c5.426 9.399 18.991 9.399 24.417 0z" fill="#ff73c6"/><path d="m239.539 209.342h-6.268c.629 2.528.362 5.319-1.118 7.883l-11.728 20.314c-2.03 3.515-5.199 5.714-8.654 6.598l.899 1.556c5.423 9.392 18.979 9.392 24.401 0l11.728-20.314c4.115-7.128-1.029-16.037-9.26-16.037z" fill="#ff4fb8"/><path d="m294.33 109.477c0 11.826-9.587 21.413-21.413 21.413s-21.413-9.587-21.413-21.413c0-8.158 10.055-27.477 16.291-38.676 2.124-3.814 7.602-3.846 9.771-.057 6.402 11.19 16.764 30.561 16.764 38.733z" fill="#d5f3f7"/><path d="m277.565 70.744c-2.168-3.789-7.647-3.757-9.771.057-.147.264-.298.537-.45.81 5.66 10.609 11.589 23.198 11.589 29.38 0 11.826-9.587 21.413-21.413 21.413-.577 0-1.145-.042-1.71-.086 3.907 5.196 10.105 8.572 17.107 8.572 11.826 0 21.413-9.587 21.413-21.413 0-8.172-10.362-27.543-16.765-38.733z" fill="#a7e8f1"/><path d="m109.806 222.109c0 11.826-9.587 21.413-21.413 21.413s-21.413-9.587-21.413-21.413c0-8.158 10.055-27.477 16.291-38.676 2.124-3.814 7.602-3.846 9.771-.057 6.402 11.19 16.764 30.561 16.764 38.733z" fill="#d5f3f7"/><path d="m93.041 183.377c-2.168-3.789-7.647-3.757-9.771.057-.147.264-.298.537-.45.81 5.66 10.609 11.589 23.198 11.589 29.38 0 11.826-9.587 21.413-21.413 21.413-.577 0-1.145-.042-1.71-.086 3.907 5.196 10.105 8.572 17.107 8.572 11.826 0 21.413-9.587 21.413-21.413 0-8.173-10.362-27.544-16.765-38.733z" fill="#a7e8f1"/><path d="m351.285 150.554c0 11.826-9.587 21.413-21.413 21.413s-21.413-9.587-21.413-21.413c0-8.158 10.055-27.477 16.291-38.676 2.124-3.814 7.602-3.846 9.771-.057 6.402 11.19 16.764 30.561 16.764 38.733z" fill="#d5f3f7"/><path d="m334.52 111.821c-2.168-3.789-7.647-3.757-9.771.057-.147.264-.298.537-.45.81 5.66 10.609 11.589 23.198 11.589 29.38 0 11.826-9.587 21.413-21.413 21.413-.577 0-1.145-.042-1.71-.086 3.907 5.196 10.105 8.572 17.107 8.572 11.826 0 21.413-9.587 21.413-21.413 0-8.172-10.362-27.543-16.765-38.733z" fill="#a7e8f1"/><path d="m395.733 193.253-117.332 117.333c-10.207 10.207-18.617 22.064-24.876 35.071l-29.209 60.702-69.475 69.475c-6.559 6.559-6.559 17.193 0 23.752 6.559 6.559 17.193 6.559 23.752 0l68.534-68.534 61.977-30.195c12.788-6.23 24.451-14.546 34.51-24.604l117.559-117.559c18.071-18.071 18.071-47.369 0-65.44-18.071-18.071-47.369-18.071-65.44-.001z" fill="#d8d1d7"/><path d="m381.734 295.674-48.639 48.639c-2.732 2.732-7.161 2.732-9.893 0l-13.089-13.089c-2.732-2.732-2.732-7.161 0-9.893l48.639-48.639c2.732-2.732 7.161-2.732 9.893 0l13.089 13.089c2.732 2.732 2.732 7.161 0 9.893z" fill="#d5f3f7"/><path d="m381.734 285.781-13.089-13.088c-2.732-2.732-7.161-2.732-9.893 0l-1.784 1.784 8.306 8.306c2.732 2.732 2.732 7.161 0 9.893l-46.855 46.855 4.782 4.782c2.732 2.732 7.161 2.732 9.893 0l48.639-48.639c2.733-2.732 2.733-7.161.001-9.893z" fill="#a7e8f1"/><path d="m177.9 452.774-23.06 23.06c-6.559 6.559-6.559 17.193 0 23.752s17.193 6.559 23.752 0l23.06-23.06z" fill="#e6e2e6"/><path d="m461.173 193.253c-10.71-10.71-25.364-15.071-39.288-13.086 5.009 2.24 9.704 5.406 13.816 9.517 18.071 18.071 18.071 47.369 0 65.44l-117.559 117.56c-10.059 10.059-21.721 18.374-34.51 24.605l-61.977 30.195-68.534 68.534c-.206.206-.428.387-.642.58.663 1.06 1.44 2.068 2.362 2.989 6.559 6.559 17.193 6.559 23.752 0l68.534-68.534 61.977-30.195c12.788-6.23 24.451-14.546 34.51-24.605l117.559-117.559c18.071-18.071 18.071-47.37 0-65.441z" fill="#cac0c9"/><path d="m153.121 496.017c-.206.206-.428.387-.642.58.663 1.06 1.44 2.068 2.362 2.989 6.559 6.559 17.193 6.559 23.752 0l23.06-23.06-14.521-14.521z" fill="#d8d1d7"/><path d="m187.024 293.077c14.568 0 28.116-5.952 37.845-16.3 9.729 10.347 23.278 16.3 37.845 16.3 4.139 0 7.495-3.355 7.495-7.495 0-4.139-3.356-7.495-7.495-7.495-12.204 0-23.399-5.878-30.35-15.814v-3.367c4.649-1.702 8.605-4.978 11.196-9.466l11.728-20.314c3.287-5.693 3.288-12.492 0-18.186-3.287-5.694-9.175-9.094-15.75-9.094h-29.338c-6.575 0-12.462 3.4-15.75 9.094s-3.288 12.492 0 18.186l11.728 20.314c2.591 4.488 6.548 7.765 11.196 9.466v3.366c-6.95 9.936-18.145 15.815-30.35 15.815-4.139 0-7.495 3.356-7.495 7.495.001 4.14 3.356 7.495 7.495 7.495zm20.407-71.446c-.803-1.391-.344-2.6 0-3.197s1.162-1.599 2.768-1.599h29.34c1.606 0 2.424 1.001 2.768 1.599.344.597.803 1.806 0 3.197l-11.728 20.314c-1.718 2.976-4.565 3.297-5.71 3.297s-3.992-.321-5.71-3.297z"/><path d="m272.696 60.426c-.025 0-.051 0-.076 0-4.719.028-9.078 2.605-11.373 6.728-17.238 30.953-17.238 39.51-17.238 42.322 0 15.94 12.968 28.909 28.909 28.909s28.909-12.968 28.909-28.909c0-2.826 0-11.427-17.755-42.455-2.333-4.073-6.685-6.595-11.376-6.595zm.221 62.97c-7.675 0-13.919-6.244-13.919-13.919 0-3.278 3.632-13.602 13.72-32.084 10.381 18.504 14.117 28.819 14.117 32.084 0 7.675-6.243 13.919-13.918 13.919z"/><path d="m88.172 173.059c-.025 0-.052 0-.077 0-4.719.027-9.077 2.606-11.373 6.727-17.238 30.951-17.238 39.51-17.238 42.323 0 15.94 12.968 28.908 28.908 28.908s28.909-12.968 28.909-28.908c0-2.826 0-11.426-17.755-42.456-2.331-4.072-6.684-6.594-11.374-6.594zm14.139 49.05c0 7.675-6.244 13.919-13.919 13.919-7.674 0-13.918-6.244-13.918-13.919 0-3.28 3.632-13.604 13.72-32.084 10.381 18.505 14.117 28.82 14.117 32.084z"/><path d="m358.78 150.554c0-2.826 0-11.427-17.755-42.455-2.331-4.073-6.684-6.595-11.375-6.595-.025 0-.051 0-.076 0-4.719.027-9.077 2.605-11.373 6.727-17.238 30.953-17.238 39.511-17.238 42.323 0 15.94 12.968 28.908 28.908 28.908 15.941 0 28.909-12.968 28.909-28.908zm-42.827 0c0-3.28 3.632-13.603 13.72-32.084 10.38 18.504 14.117 28.819 14.117 32.084 0 7.674-6.244 13.918-13.919 13.918-7.674.001-13.918-6.243-13.918-13.918z"/><path d="m183.105 195.074c-3.717-1.822-8.207-.287-10.03 3.429-2.352 4.796-7.126 7.775-12.459 7.775s-10.107-2.979-12.459-7.775c-1.823-3.716-6.313-5.252-10.029-3.429-3.717 1.823-5.252 6.313-3.429 10.029 4.89 9.971 14.821 16.165 25.918 16.165 11.096 0 21.028-6.194 25.918-16.164 1.821-3.717.286-8.207-3.43-10.03z"/><path d="m301.583 198.503c-2.352 4.796-7.127 7.775-12.459 7.775-5.333 0-10.107-2.979-12.459-7.775-1.822-3.716-6.312-5.252-10.029-3.429s-5.252 6.313-3.429 10.029c4.89 9.971 14.821 16.165 25.918 16.165 11.096 0 21.028-6.194 25.918-16.164 1.823-3.717.287-8.207-3.429-10.03-3.718-1.823-8.209-.288-10.031 3.429z"/><path d="m466.473 187.954c-10.155-10.156-23.658-15.749-38.019-15.749-6.028 0-11.901.998-17.442 2.892-.819-2.961-1.714-5.897-2.676-8.81l9.483-142.391c.538-8.071-3.154-15.577-9.875-20.078-6.721-4.501-15.067-5.057-22.326-1.487l-91.574 45.04c-21.257-7.952-43.925-12.135-66.857-12.135h-6.725c-23.315 0-45.926 4.134-67.045 12.042l-91.386-44.946c-7.259-3.57-15.606-3.014-22.326 1.487-6.721 4.501-10.412 12.006-9.875 20.078l9.465 142.109c.005.077.019.151.026.228-6.293 19.119-9.542 39.232-9.542 59.686v14.072c0 61.97 50.416 112.387 112.387 112.387h64.642c4.139 0 7.495-3.356 7.495-7.495s-3.356-7.495-7.495-7.495h-64.642c-53.705 0-97.397-43.692-97.397-97.397v-14.072c0-34.05 9.751-67.074 28.199-95.504 2.253-3.472 1.265-8.114-2.208-10.367-3.472-2.253-8.113-1.265-10.367 2.208-2.893 4.458-5.582 9.023-8.078 13.678l-7.528-113.035c-.256-3.84 2.194-5.914 3.259-6.627 1.064-.713 3.914-2.189 7.369-.491l79.991 39.343c-19.275 9.625-36.982 22.599-52.418 38.654-2.869 2.984-2.775 7.729.208 10.598 2.984 2.869 7.728 2.775 10.598-.208 33.443-34.785 78.428-53.942 126.667-53.942h6.725c80.972 0 150.269 53.986 170.182 131.877-2.445 1.74-4.77 3.684-6.935 5.849l-117.332 117.333c-9.502 9.501-17.484 20.281-23.784 32.102h-8.214c-4.139 0-7.495 3.356-7.495 7.495s3.356 7.495 7.495 7.495h.87l-23.859 49.582-68.574 68.574c-4.588 4.588-7.115 10.688-7.114 17.176 0 6.488 2.527 12.588 7.114 17.175 4.588 4.588 10.688 7.115 17.176 7.115s12.588-2.527 17.175-7.115l67.646-67.645 60.848-29.645c13.566-6.609 25.856-15.371 36.527-26.042l71.191-71.192c2.927-2.927 2.927-7.672 0-10.599s-7.672-2.927-10.599 0l-71.191 71.192c-9.493 9.492-20.426 17.286-32.493 23.166l-61.977 30.195c-.747.364-1.429.85-2.017 1.438l-40.175 40.174-13.151-13.153 41.115-41.115c.597-.596 1.088-1.29 1.454-2.05l29.209-60.701c5.908-12.277 13.788-23.387 23.422-33.021l117.332-117.333c7.325-7.325 17.062-11.358 27.42-11.358s20.096 4.033 27.42 11.358c7.325 7.324 11.358 17.062 11.358 27.42s-4.033 20.096-11.358 27.42l-21.884 21.885c-2.927 2.927-2.927 7.673 0 10.599 2.927 2.927 7.672 2.927 10.599 0l21.885-21.884c10.156-10.155 15.749-23.658 15.749-38.02s-5.593-27.865-15.748-38.02zm-119.533-110.43c-10.803-8.728-22.509-16.195-34.854-22.322l80.147-39.42c3.454-1.699 6.304-.223 7.368.491 1.065.713 3.515 2.787 3.26 6.627l-7.533 113.111c-11.998-22.369-28.435-42.366-48.388-58.487zm-155.887 399.002-17.76 17.76c-1.757 1.757-4.092 2.724-6.576 2.724s-4.819-.968-6.577-2.724c-3.626-3.626-3.626-9.526 0-13.153l17.76-17.76z"/><path d="m353.453 267.392-48.639 48.639c-2.737 2.737-4.245 6.376-4.245 10.246s1.507 7.509 4.244 10.246l13.088 13.088c2.737 2.737 6.376 4.244 10.246 4.244 3.871 0 7.51-1.507 10.246-4.244l48.64-48.639c5.649-5.649 5.649-14.841 0-20.492l-13.089-13.089c-5.649-5.648-14.842-5.648-20.491.001zm-25.305 71.268-12.382-12.382 47.933-47.933 12.382 12.382z"/></svg>