<svg height="512" viewBox="0 0 64 64" width="512" xmlns="http://www.w3.org/2000/svg"><g id="clean_&#xB7;_hygiene_&#xB7;_gel_&#xB7;_wash_&#xB7;_handwash" data-name="clean &#xB7;  hygiene &#xB7; gel  &#xB7; wash  &#xB7; handwash"><rect fill="#9bc9ff" height="30" rx="2" width="22" x="39" y="31"/><path d="m59 31h-3a2.006 2.006 0 0 1 2 2v26a2.006 2.006 0 0 1 -2 2h3a2.006 2.006 0 0 0 2-2v-26a2.006 2.006 0 0 0 -2-2z" fill="#57a4ff"/><path d="m39 37h22v18h-22z" fill="#2488ff"/><path d="m58 37h3v18h-3z" fill="#006df0"/><path d="m51.41 43.89a3.005 3.005 0 0 0 -3.68-2.12l-8.73 2.34-3.23.86a3.017 3.017 0 0 0 -2.21-2.61l-12.56-3.36-.41-.1a10.042 10.042 0 0 0 -6.9.75l-2.27 1.14a1.974 1.974 0 0 1 -.89.21h-1.53v10h1.39a1.965 1.965 0 0 1 1.11.34l1.49.99a3.993 3.993 0 0 0 2.22.67h13.79l10-2.68 10.28-2.76a3 3 0 0 0 2.23-2.9 2.908 2.908 0 0 0 -.1-.77z" fill="#ffbcab"/><path d="m51.28 8.44-10.28-2.76-10-2.68h-13.79a3.993 3.993 0 0 0 -2.22.67l-1.49.99a1.965 1.965 0 0 1 -1.11.34h-1.39v10h1.53a1.974 1.974 0 0 1 .89.21l2.27 1.14a10.042 10.042 0 0 0 6.9.75l.41-.1 12.56-3.36a3.017 3.017 0 0 0 2.21-2.61l3.23.86 8.73 2.34a3.005 3.005 0 0 0 3.68-2.12 2.908 2.908 0 0 0 .1-.77 3 3 0 0 0 -2.23-2.9z" fill="#ffbcab"/><path d="m57 27h-3-8-3v4h14z" fill="#ffcd00"/><path d="m55 27h2v4h-2z" fill="#ebbf00"/><path d="m54 19h-1-6-1v4 4h8z" fill="#57a4ff"/><path d="m53 19h-1v8h2v-8z" fill="#2488ff"/><path d="m36 19-4 3 2 3 3-2h9v-4z" fill="#ffcd00"/><path d="m53 17a2 2 0 0 0 -2-2h-2a2 2 0 0 0 -2 2v2h6z" fill="#005ece"/><path d="m51 15h-1a2 2 0 0 1 2 2v2h1v-2a2 2 0 0 0 -2-2z" fill="#004fac"/><path d="m9 39h-6v14h6v-2-10z" fill="#006df0"/><path d="m11 15v-10-2h-6v14h6z" fill="#006df0"/><path d="m29 36a3 3 0 0 0 3-3c0-1.657-3-5-3-5s-3 3.343-3 5a3 3 0 0 0 3 3z" fill="#2488ff"/><path d="m35.77 44.97a2.991 2.991 0 0 0 -.169-.712 3 3 0 0 1 -3.6 1.9l-6.271-1.819a.96.96 0 0 0 -1.185.64v.009a.959.959 0 0 0 .651 1.2l6.804 1.972a3.005 3.005 0 0 0 3.77-3.19z" fill="#ff9478"/><path d="m37.77 11.03a2.991 2.991 0 0 1 -.169.712 3 3 0 0 0 -3.601-1.902l-6.271 1.819a.96.96 0 0 1 -1.185-.64v-.009a.959.959 0 0 1 .651-1.2l6.805-1.97a3.005 3.005 0 0 1 3.77 3.19z" fill="#ff9478"/><g fill="#231f20"><path d="m33 33c0-1.941-2.712-5.062-3.256-5.668a1.031 1.031 0 0 0 -1.488 0c-.544.606-3.256 3.727-3.256 5.668a4 4 0 0 0 8 0zm-6 0c0-.637.939-2.125 2-3.451 1.062 1.332 2 2.831 2 3.451a2 2 0 0 1 -4 0z"/><path d="m59 30h-1v-3a1 1 0 0 0 -1-1h-2v-7a1 1 0 0 0 -1-1v-1a2.987 2.987 0 0 0 -1.22-2.4 3.973 3.973 0 0 0 1.6-2.23 3.931 3.931 0 0 0 .13-1.03 4 4 0 0 0 -2.97-3.87l-20.28-5.44-.227-.03h-13.823a4.991 4.991 0 0 0 -2.76.833l-1.5 1a1.023 1.023 0 0 1 -.56.17h-.39v-1.003a1 1 0 0 0 -1-1h-6a1 1 0 0 0 -1 1v14a1 1 0 0 0 1 1h6a1 1 0 0 0 1-1v-1h.53a1.03 1.03 0 0 1 .45.11l2.26 1.13a11.023 11.023 0 0 0 4.93 1.16 10.948 10.948 0 0 0 2.66-.33l12.99-3.47a3.976 3.976 0 0 0 2.42-1.86q.135-.24.24-.48l8.74 2.33a3.02 3.02 0 0 0 -1.22 2.41v1h-10a.984.984 0 0 0 -.6.2l-4 3a.993.993 0 0 0 -.23 1.35l2 3a1 1 0 0 0 .83.45.939.939 0 0 0 .55-.17l2.75-1.83h7.7v2h-2a1 1 0 0 0 -1 1v3h-1a3.009 3.009 0 0 0 -3 3v10.34l-1.52.41a4.026 4.026 0 0 0 -2.66-2.36l-12.58-3.36-.41-.1a11.082 11.082 0 0 0 -7.59.83l-2.27 1.14a.947.947 0 0 1 -.44.1h-.53v-1a1 1 0 0 0 -1-1h-6a1 1 0 0 0 -1 1v14a1 1 0 0 0 1 1h6a1 1 0 0 0 1-1v-1h.39a1.023 1.023 0 0 1 .56.17l1.49.99a5.024 5.024 0 0 0 2.782.84h13.811l.227-.03 8.74-2.35v7.38a3.009 3.009 0 0 0 3 3h18a3.009 3.009 0 0 0 3-3v-26a3.009 3.009 0 0 0 -3-3zm-49-14h-4v-12h4zm-2 36h-4v-12h4zm30.75-41.74a3.693 3.693 0 0 0 -.11-.56 4 4 0 0 0 -4.89-2.83l-7.01 1.88a1 1 0 1 0 .52 1.93l7-1.87a2 2 0 0 1 1.04 3.86l-12.54 3.36-.41.1a9.012 9.012 0 0 1 -6.21-.68l-2.27-1.13a3 3 0 0 0 -1.34-.32h-.53v-8h.39a3 3 0 0 0 1.67-.5l1.49-1a2.97 2.97 0 0 1 1.66-.5h13.66l20.16 5.41a1.993 1.993 0 0 1 1.48 1.93 1.745 1.745 0 0 1 -.07.51 1.927 1.927 0 0 1 -.93 1.21 1.974 1.974 0 0 1 -1.52.2zm13.25 6.74v1h-4v-1a1 1 0 0 1 1-1h2a1 1 0 0 1 1 1zm-5 3h6v6h-6zm-10 2a.967.967 0 0 0 -.55.17l-2.17 1.44-.92-1.38 2.97-2.23h8.67v2zm7 6h12v2h-12zm-15.13 24h-13.66a3 3 0 0 1 -1.67-.5l-1.47-.98a2.952 2.952 0 0 0 -1.68-.52h-.39v-8h.53a2.971 2.971 0 0 0 1.34-.32l2.26-1.13a9.052 9.052 0 0 1 6.22-.68l12.95 3.46a2 2 0 0 1 1.47 1.73 1.886 1.886 0 0 1 -.06.72 2 2 0 0 1 -1.93 1.48 1.722 1.722 0 0 1 -.52-.07l-7-1.88a1 1 0 1 0 -.52 1.94l7 1.88a4.421 4.421 0 0 0 1.04.13 4 4 0 0 0 3.86-2.95 3.387 3.387 0 0 0 .1-.57l11.25-3a1.969 1.969 0 0 1 1.52.2 1.927 1.927 0 0 1 .93 1.21 1.745 1.745 0 0 1 .07.51 1.99 1.99 0 0 1 -1.49 1.93zm31.13 7a1 1 0 0 1 -1 1h-18a1 1 0 0 1 -1-1v-3h20zm0-5h-20v-2.91l9.53-2.56a3.992 3.992 0 0 0 2.98-3.87 3.931 3.931 0 0 0 -.13-1.03 4.013 4.013 0 0 0 -4.91-2.83l-7.47 2v-4.8h20zm0-18h-20v-3a1 1 0 0 1 1-1h18a1 1 0 0 1 1 1z"/></g></g></svg>