<?xml version="1.0"?>
<svg xmlns="http://www.w3.org/2000/svg" viewBox="0 0 64 64" width="512" height="512"><g id="Medical_Mask-man-mask-coronavirus-covid-covid19" data-name="Medical Mask-man-mask-coronavirus-covid-covid19"><path d="M20,50H44A10,10,0,0,1,54,60v1a0,0,0,0,1,0,0H10a0,0,0,0,1,0,0V60A10,10,0,0,1,20,50Z" style="fill:#2488ff"/><path d="M37,41v8a5,5,0,0,1-10,0V41Z" style="fill:#f0d0b4"/><path d="M18,14H46a0,0,0,0,1,0,0V31A14,14,0,0,1,32,45h0A14,14,0,0,1,18,31V14a0,0,0,0,1,0,0Z" style="fill:#f5e0cd"/><path d="M50,19v5a2.006,2.006,0,0,1-2,2H46V17h2A2.006,2.006,0,0,1,50,19Z" style="fill:#f0d0b4"/><path d="M18,17v9H16a2.006,2.006,0,0,1-2-2V19a2.006,2.006,0,0,1,2-2Z" style="fill:#f0d0b4"/><path d="M46,14H15A10.984,10.984,0,0,1,33.31,5.8,8.984,8.984,0,0,1,46,14Z" style="fill:#806749"/><path d="M41,29l1.73,10.98a13.976,13.976,0,0,1-21.34.14L23,29Z" style="fill:#fff"/><path d="M27,24a1,1,0,0,0,1-1V21a1,1,0,0,0-2,0v2A1,1,0,0,0,27,24Z"/><path d="M37,24a1,1,0,0,0,1-1V21a1,1,0,0,0-2,0v2A1,1,0,0,0,37,24Z"/><path d="M44,49H38V44.74A15.016,15.016,0,0,0,47,31V27h1a3.009,3.009,0,0,0,3-3V19a3.009,3.009,0,0,0-3-3H47V14A10.016,10.016,0,0,0,37,4a9.784,9.784,0,0,0-3.51.64A11.986,11.986,0,0,0,14,14a1,1,0,0,0,1,1h2v1H16a3.009,3.009,0,0,0-3,3v5a3.009,3.009,0,0,0,3,3h1v4a15.016,15.016,0,0,0,9,13.74V49H20A11.007,11.007,0,0,0,9,60v1a1,1,0,0,0,1,1H54a1,1,0,0,0,1-1V60A11.007,11.007,0,0,0,44,49Zm3-31h1a1,1,0,0,1,1,1v5a1,1,0,0,1-1,1H47ZM17,25H16a1,1,0,0,1-1-1V19a1,1,0,0,1,1-1h1Zm28,6a12.914,12.914,0,0,1-1.67,6.36l-1.3-8.24L45,22Zm0-14.2L40.33,28H23.67L19,16.8V15H45ZM16.05,13A9.985,9.985,0,0,1,32.64,6.54a1,1,0,0,0,1.08.17A7.937,7.937,0,0,1,37,6a8.022,8.022,0,0,1,7.94,7Zm4.71,24.5A12.933,12.933,0,0,1,19,31V22l2.97,7.13Zm1.69,2.29L23.87,30H40.14l1.52,9.66a12.929,12.929,0,0,1-19.21.13ZM36,45.44V49a4,4,0,0,1-8,0V45.44a14.566,14.566,0,0,0,8,0ZM11,60a9.014,9.014,0,0,1,9-9h6.35a5.99,5.99,0,0,0,11.3,0H44a9.014,9.014,0,0,1,9,9Z"/></g></svg>
