<svg id="Layer_1" enable-background="new 0 0 512 512" height="512" viewBox="0 0 512 512" width="512" xmlns="http://www.w3.org/2000/svg"><g><path d="m134.282 149.818c0 33.305-24.331 24.107-52.929 24.107s-50.635 9.198-50.635-24.107 23.184-85.318 51.782-85.318 51.782 52.013 51.782 85.318z" fill="#be652b"/><path d="m37.5 157.5h90v99.773h-90z" fill="#ffd54f"/><path d="m97.5 157.5h30v99.773h-30z" fill="#ffc328"/><path d="m37.5 287.273h30v160.227h-30z" fill="#ebad88"/><path d="m97.5 287.273h30v160.227h-30z" fill="#ebad88"/><path d="m67.5 447.5h-30v-17c0-8.284 6.716-15 15-15 8.284 0 15 6.716 15 15z" fill="#be652b"/><path d="m127.5 447.5h-30v-17c0-8.284 6.716-15 15-15 8.284 0 15 6.716 15 15z" fill="#be652b"/><path d="m22.5 307.273c-8.284 0-15-6.716-15-15v-110.773c0-13.255 10.745-24 24-24h6v134.773c0 8.284-6.716 15-15 15z" fill="#ebad88"/><path d="m142.5 307.273c8.284 0 15-6.716 15-15v-110.773c0-13.255-10.745-24-24-24h-6v134.773c0 8.284 6.716 15 15 15z" fill="#ebad88"/><path d="m37.5 257.273h90v87.077h-90z" fill="#ff80ab"/><path d="m97.5 257.273h30v87.077h-30z" fill="#f06a98"/><path d="m82.5 183.5c-8.284 0-15-6.716-15-15v-41h30v41c0 8.284-6.716 15-15 15z" fill="#e8916f"/><path d="m82.5 144.5c-16.569 0-30-13.431-30-30v-16c0-16.569 13.431-30 30-30 16.569 0 30 13.431 30 30v16c0 16.569-13.431 30-30 30z" fill="#ebad88"/><path d="m82.5 64.5c-16.569 0-30 13.431-30 30v13.052c2.538 5.633 18.487 3.153 35.308-10.283 8.718 7.897 19.385 16.222 24.692 10.283v-13.052c0-16.569-13.431-30-30-30z" fill="#d67b42"/><path d="m384.5 157.5h90v110h-90z" fill="#f75632"/><path d="m444.5 157.5h30v110h-30z" fill="#e33629"/><path d="m474.5 267.5v180h-30v-135c0-8.284-6.716-15-15-15-8.284 0-15 6.716-15 15v135h-30v-180z" fill="#4362a0"/><g><path d="m444.5 267.5h30v180h-30z" fill="#3e5a94"/></g><path d="m414.5 447.5h-30v-17c0-8.284 6.716-15 15-15 8.284 0 15 6.716 15 15z" fill="#be652b"/><path d="m474.5 447.5h-30v-17c0-8.284 6.716-15 15-15 8.284 0 15 6.716 15 15z" fill="#be652b"/><path d="m369.5 317.5c-8.284 0-15-6.716-15-15v-121c0-13.255 10.745-24 24-24h6v145c0 8.284-6.716 15-15 15z" fill="#ebad88"/><path d="m489.5 317.5c8.284 0 15-6.716 15-15v-121c0-13.255-10.745-24-24-24h-6v145c0 8.284 6.716 15 15 15z" fill="#ebad88"/><path d="m429.5 177.5c-8.284 0-15-6.716-15-15v-35h30v35c0 8.284-6.716 15-15 15z" fill="#e8916f"/><path d="m429.5 146.5c-16.569 0-30-13.431-30-30v-16c0-16.569 13.431-30 30-30 16.569 0 30 13.431 30 30v16c0 16.569-13.431 30-30 30z" fill="#ebad88"/><path d="m429.5 70.5c-16.569 0-30 13.431-30 30v.96c7.757 4.735 18.333 7.655 30 7.655s22.243-2.92 30-7.655v-.96c0-16.569-13.431-30-30-30z" fill="#be652b"/><path d="m384.5 217.5h-30v-36c0-13.255 10.745-24 24-24h6z" fill="#4362a0"/><path d="m474.5 217.5h30v-36c0-13.255-10.745-24-24-24h-6z" fill="#4362a0"/><g><path d="m165 292.272v-110.772c0-14.468-9.807-26.68-23.12-30.36.008-.439.022-.872.022-1.321 0-25.544-12.163-58.3-28.349-76.491-6.765-9.851-18.104-16.328-30.932-16.328-12.83 0-24.171 6.48-30.935 16.335-16.184 18.191-28.344 50.944-28.344 76.485 0 .43.012.836.018 1.253-13.436 3.597-23.36 15.873-23.36 30.427v9.821c0 4.142 3.358 7.5 7.5 7.5s7.5-3.358 7.5-7.5v-9.821c0-8.593 6.602-15.672 15-16.433v127.205c0 4.136-3.364 7.5-7.5 7.5s-7.5-3.364-7.5-7.5v-68.823c0-4.142-3.358-7.5-7.5-7.5s-7.5 3.358-7.5 7.5v68.823c0 12.407 10.093 22.5 22.5 22.5 2.629 0 5.153-.458 7.5-1.29v134.018c0 4.142 3.358 7.5 7.5 7.5h30c4.142 0 7.5-3.358 7.5-7.5v-95.65h15v95.65c0 4.142 3.358 7.5 7.5 7.5h30c4.142 0 7.5-3.358 7.5-7.5v-43.731c0-4.142-3.358-7.5-7.5-7.5s-7.5 3.358-7.5 7.5v5.521c-2.347-.833-4.871-1.29-7.5-1.29s-5.153.458-7.5 1.29v-57.44h15v19.997c0 4.142 3.358 7.5 7.5 7.5s7.5-3.358 7.5-7.5v-58.364c2.347.833 4.871 1.29 7.5 1.29 12.407-.001 22.5-10.094 22.5-22.501zm-52.5 130.728c4.136 0 7.5 3.364 7.5 7.5v9.5h-15v-9.5c0-4.136 3.364-7.5 7.5-7.5zm-18.013-289.395c-.488.214-.945.481-1.372.79-3.135 1.66-6.705 2.605-10.494 2.605-11.273 0-20.634-8.333-22.251-19.163 7.84-.409 17.618-4.342 27.176-10.941 5.765 4.818 11.685 8.785 17.461 9.872-.714 7.102-4.748 13.238-10.52 16.837zm-11.866 18.395c2.525 0 4.992-.255 7.379-.733v17.233c0 4.136-3.364 7.5-7.5 7.5s-7.5-3.364-7.5-7.5v-17.28c2.462.51 5.01.78 7.621.78zm-.121 39c12.407 0 22.5-10.093 22.5-22.5v-3.5h15v84.77h-75v-84.77h15v3.5c0 12.407 10.093 22.5 22.5 22.5zm44.399-41h-21.899v-5.428c9.043-6.747 14.944-17.472 15.108-29.558 4.226 11.703 6.793 24.109 6.793 34.806 0 .061-.002.119-.002.18zm-44.278-78c12.407 0 22.5 10.093 22.5 22.5v6.545c-2.273-1.208-6.052-3.804-12.157-9.334-2.726-2.469-6.842-2.598-9.716-.301-10.446 8.345-19.014 11.016-23.127 11.432v-8.342c0-12.407 10.093-22.5 22.5-22.5zm-37.487 43.014c.163 11.977 5.961 22.613 14.866 29.37v5.616h-21.656c0-.061-.003-.118-.003-.18 0-10.697 2.567-23.103 6.793-34.806zm14.866 324.986h-15v-9.5c0-4.136 3.364-7.5 7.5-7.5s7.5 3.364 7.5 7.5zm0-30.71c-2.347-.833-4.871-1.29-7.5-1.29s-5.153.458-7.5 1.29v-57.44h15zm-15-72.44v-72.077h75v72.077zm90-44.578v-127.205c8.398.76 15 7.84 15 16.433v110.772c0 4.136-3.364 7.5-7.5 7.5s-7.5-3.364-7.5-7.5z"/><path d="m480.5 150h-28.5v-3.52c9.102-6.848 15-17.737 15-29.98v-16c0-20.678-16.822-37.5-37.5-37.5s-37.5 16.822-37.5 37.5v16c0 12.242 5.898 23.131 15 29.98v3.52h-28.5c-17.369 0-31.5 14.131-31.5 31.5v121c0 12.407 10.093 22.5 22.5 22.5 2.629 0 5.153-.458 7.5-1.29v123.79c0 4.142 3.358 7.5 7.5 7.5h30c4.142 0 7.5-3.358 7.5-7.5v-135c0-4.136 3.364-7.5 7.5-7.5s7.5 3.364 7.5 7.5v135c0 4.142 3.358 7.5 7.5 7.5h30c4.142 0 7.5-3.358 7.5-7.5v-123.79c2.347.833 4.871 1.29 7.5 1.29 12.407 0 22.5-10.093 22.5-22.5v-14.5c0-4.142-3.358-7.5-7.5-7.5s-7.5 3.358-7.5 7.5v14.5c0 4.136-3.364 7.5-7.5 7.5s-7.5-3.364-7.5-7.5v-77.5h15v31c0 4.142 3.358 7.5 7.5 7.5s7.5-3.358 7.5-7.5v-74.5c0-17.369-14.131-31.5-31.5-31.5zm-13.5 110h-75v-95h15.142c1.248 11.234 10.796 20 22.358 20s21.11-8.766 22.358-20h15.142zm-30-97.5c0 4.136-3.364 7.5-7.5 7.5s-7.5-3.364-7.5-7.5v-9.255c2.424.494 4.932.755 7.5.755s5.076-.261 7.5-.755zm-7.5-23.5c-12.407 0-22.5-10.093-22.5-22.5v-3.419c6.919 2.303 14.609 3.534 22.5 3.534 7.898 0 15.585-1.228 22.5-3.531v3.415c0 12.408-10.093 22.501-22.5 22.501zm0-61c11.243 0 20.586 8.289 22.24 19.077-6.354 2.931-14.084 4.539-22.24 4.539-8.144 0-15.885-1.605-22.241-4.535 1.653-10.79 10.997-19.081 22.241-19.081zm-67.5 103.5c0-8.593 6.602-15.672 15-16.433v44.933h-15zm7.5 128.5c-4.136 0-7.5-3.364-7.5-7.5v-77.5h15v77.5c0 4.136-3.364 7.5-7.5 7.5zm37.5 130h-15v-9.5c0-4.136 3.364-7.5 7.5-7.5s7.5 3.364 7.5 7.5zm22.5-150c-12.407 0-22.5 10.093-22.5 22.5v96.79c-2.347-.833-4.871-1.29-7.5-1.29s-5.153.458-7.5 1.29v-134.29h75v134.29c-2.347-.833-4.871-1.29-7.5-1.29s-5.153.458-7.5 1.29v-96.79c0-12.407-10.093-22.5-22.5-22.5zm37.5 150h-15v-9.5c0-4.136 3.364-7.5 7.5-7.5s7.5 3.364 7.5 7.5zm15-230v-44.933c8.398.76 15 7.84 15 16.433v28.5z"/><path d="m297.303 193.197c-2.929-2.929-7.678-2.929-10.606 0-2.929 2.929-2.929 7.678 0 10.606l5.658 5.658h-72.71l5.658-5.658c2.929-2.929 2.929-7.678 0-10.606-2.929-2.929-7.678-2.929-10.606 0l-19 19c-2.929 2.929-2.929 7.678 0 10.606l19 19c1.464 1.464 3.384 2.197 5.303 2.197s3.839-.732 5.303-2.197c2.929-2.929 2.929-7.678 0-10.606l-6.735-6.735h74.864l-6.735 6.735c-2.929 2.929-2.929 7.678 0 10.606 1.464 1.464 3.384 2.197 5.303 2.197s3.839-.732 5.303-2.197l19-19c2.929-2.929 2.929-7.678 0-10.606z"/><path d="m176.154 434h-20c-4.142 0-7.5 3.358-7.5 7.5s3.358 7.5 7.5 7.5h20c4.142 0 7.5-3.358 7.5-7.5s-3.358-7.5-7.5-7.5z"/><path d="m221.077 434h-20c-4.142 0-7.5 3.358-7.5 7.5s3.358 7.5 7.5 7.5h20c4.142 0 7.5-3.358 7.5-7.5s-3.358-7.5-7.5-7.5z"/><path d="m266 434h-20c-4.142 0-7.5 3.358-7.5 7.5s3.358 7.5 7.5 7.5h20c4.142 0 7.5-3.358 7.5-7.5s-3.358-7.5-7.5-7.5z"/><path d="m310.923 434h-20c-4.142 0-7.5 3.358-7.5 7.5s3.358 7.5 7.5 7.5h20c4.142 0 7.5-3.358 7.5-7.5s-3.358-7.5-7.5-7.5z"/><path d="m355.846 434h-20c-4.142 0-7.5 3.358-7.5 7.5s3.358 7.5 7.5 7.5h20c4.142 0 7.5-3.358 7.5-7.5s-3.358-7.5-7.5-7.5z"/></g></g></svg>