<svg id="Capa_1" enable-background="new 0 0 512 512" height="512" viewBox="0 0 512 512" width="512" xmlns="http://www.w3.org/2000/svg"><g id="XMLID_1341_"><path id="XMLID_2879_" d="m342 10h160v120h-160z" fill="#bedaff"/><path id="XMLID_2878_" d="m409.75 62.25-67.75 67.75h135.5z" fill="#d5ea7a"/><path id="XMLID_2877_" d="m382.157 130h119.843v-39.343l-40.25-40.25z" fill="#d5ea7a"/><circle id="XMLID_2874_" cx="69" cy="69" fill="#f8f8f8" r="59"/><path id="XMLID_2873_" d="m251.167 198.166c-19.882 0-36-16.118-36-36v-16c0-19.882 16.118-36 36-36 19.882 0 36 16.118 36 36v16c0 19.882-16.118 36-36 36z" fill="#f4c6af"/><path id="XMLID_2872_" d="m251.167 198.166c-19.882 0-36-16.118-36-36v-16c0-19.882 16.118-36 36-36 19.882 0 36 16.118 36 36v16c0 19.882-16.118 36-36 36z" fill="#d0a084"/><path id="XMLID_2871_" d="m414 462h48v40h-48z" fill="#ffd88e"/><path id="XMLID_2868_" d="m414 462h48v40h-48z" fill="#9da5be"/><g fill="#ff7a7a"><path id="XMLID_2867_" d="m413.995 462h-315.99c-13.257 0-24.005-10.748-24.005-24.005v-33.283c0-13.366 10.835-24.202 24.202-24.202h315.597c13.366 0 24.202 10.835 24.202 24.202v33.283c-.001 13.257-10.749 24.005-24.006 24.005z"/><path id="XMLID_2598_" d="m408.312 380.51h-304.624c-16.396 0-29.688-13.292-29.688-29.688v-65.018c0-16.53 13.4-29.931 29.931-29.931h304.139c16.53 0 29.931 13.4 29.931 29.931v65.018c-.001 16.396-13.293 29.688-29.689 29.688z"/><path id="XMLID_1887_" d="m438 446.724v-177.448c0-8.437 6.839-15.276 15.276-15.276h33.322c8.506 0 15.401 6.895 15.401 15.401v177.198c0 8.506-6.895 15.401-15.401 15.401h-33.322c-8.437 0-15.276-6.839-15.276-15.276z"/></g><path id="XMLID_1885_" d="m50 462h48v40h-48z" fill="#ffd88e" transform="matrix(-1 0 0 -1 148 964)"/><path id="XMLID_1884_" d="m50 462h48v40h-48z" fill="#9da5be" transform="matrix(-1 0 0 -1 148 964)"/><path id="XMLID_1883_" d="m74 446.724v-177.448c0-8.437-6.839-15.276-15.276-15.276h-33.323c-8.506 0-15.401 6.895-15.401 15.401v177.198c0 8.506 6.895 15.401 15.401 15.401h33.322c8.438 0 15.277-6.839 15.277-15.276z" fill="#ff7a7a"/><g id="XMLID_2293_"><g><path id="XMLID_104_" d="m189.845 332.333c-20.628 0-37.35 16.722-37.35 37.35v108.864c0 12.952 10.5 23.453 23.453 23.453 12.952 0 23.453-10.5 23.453-23.453v-98.037h25.19z" fill="#9da5be"/></g></g><path id="XMLID_1877_" d="m324 332.333v2.255c0 25.362-20.56 45.922-45.922 45.922h-31.774 25.19-25.19v98.038c0 12.952-10.5 23.453-23.453 23.453-12.952 0-23.453-10.5-23.453-23.453v-108.864c0-20.628 16.722-37.35 37.35-37.35h87.252z" fill="#9da5be"/><path id="XMLID_2746_" d="m263.546 198.166h-24.758c-33.388 0-60.454 27.066-60.454 60.454v73.713h145.666v-73.713c0-33.388-27.066-60.454-60.454-60.454z" fill="#ffd88e"/><path id="XMLID_1857_" d="m244.5 239h-81c-14.083 0-25.5 11.417-25.5 25.5v67.833h132v-67.833c0-14.083-11.417-25.5-25.5-25.5z" fill="#bedaff"/><g id="XMLID_95_"><path id="XMLID_836_" d="m486.599 244h-33.322c-8.418 0-15.882 4.14-20.479 10.486-6.806-5.386-15.395-8.613-24.728-8.613h-75.247c-4.636-25.25-22.766-45.822-46.621-53.948 6.83-8.029 10.964-18.417 10.964-29.759v-16c0-25.364-20.636-46-46-46s-46 20.636-46 46v16c0 11.338 4.132 21.724 10.957 29.751-18.038 6.129-33.087 19.414-41.267 37.083h-11.356c-12.747 0-23.942 6.756-30.204 16.873h-29.365c-9.333 0-17.922 3.228-24.728 8.613-4.597-6.346-12.062-10.486-20.479-10.486h-33.323c-14.006 0-25.401 11.395-25.401 25.401v43.599c0 5.522 4.477 10 10 10s10-4.478 10-10v-43.599c0-2.979 2.423-5.401 5.401-5.401h33.322c2.909 0 5.276 2.367 5.276 5.276v177.447c0 2.909-2.367 5.276-5.276 5.276h-33.322c-2.979 0-5.401-2.423-5.401-5.401v-43.598c0-5.522-4.477-10-10-10s-10 4.478-10 10v43.599c0 14.006 11.395 25.401 25.401 25.401h14.599v30c0 5.522 4.477 10 10 10h48c5.523 0 10-4.478 10-10v-30h34.494v6.548c0 18.445 15.007 33.452 33.453 33.452 9.128 0 17.411-3.679 23.453-9.627 6.042 5.948 14.324 9.627 23.453 9.627 18.446 0 33.452-15.007 33.452-33.452v-6.548h147.695v30c0 5.522 4.477 10 10 10h48c5.523 0 10-4.478 10-10v-30h14.599c14.006 0 25.401-11.395 25.401-25.401v-177.198c0-14.006-11.395-25.401-25.401-25.401zm-58.599 41.804v65.019c0 10.855-8.832 19.688-19.688 19.688h-87.419c8.172-9.725 13.107-22.255 13.107-35.922v-68.715h74.069c10.99-.001 19.931 8.939 19.931 19.93zm-202.833-139.638c0-14.337 11.664-26 26-26s26 11.663 26 26v16c0 14.337-11.664 26-26 26s-26-11.663-26-26zm13.621 62h24.758c27.821 0 50.455 22.634 50.455 50.454v63.713h-34v-20h4c5.523 0 10-4.478 10-10s-4.477-10-10-10h-4v-17.833c0-19.575-15.925-35.5-35.5-35.5h-46.567c9.321-12.846 24.39-20.834 40.854-20.834zm-75.288 40.834h81c8.547 0 15.5 6.953 15.5 15.5v57.833h-112v-57.833c0-8.547 6.953-15.5 15.5-15.5zm-59.569 16.873h24.069v66.46c0 5.522 4.477 10 10 10h13.229c-5.492 7.731-8.734 17.167-8.734 27.351v.826h-38.806c-10.857 0-19.689-8.832-19.689-19.688v-65.019c0-10.99 8.941-19.93 19.931-19.93zm-15.931 226.127h-28v-20h28zm10.005-40c-7.722 0-14.005-6.283-14.005-14.006v-33.282c0-7.831 6.371-14.202 14.202-14.202h44.292v61.49zm77.942 40c-7.418 0-13.453-6.034-13.453-13.452v-108.864c0-15.081 12.27-27.351 27.351-27.351h8.289c-5.492 7.731-8.734 17.167-8.734 27.351v108.864c-.001 7.418-6.035 13.452-13.453 13.452zm60.357-13.452c0 7.418-6.035 13.452-13.452 13.452-7.418 0-13.453-6.034-13.453-13.452v-108.864c0-15.081 12.269-27.351 27.35-27.351h76.4c-3.552 16.096-17.923 28.177-35.071 28.177h-31.774c-5.523 0-10 4.478-10 10v.01zm20-88.038h157.494c7.831 0 14.202 6.371 14.202 14.202v33.282c0 7.723-6.283 14.006-14.005 14.006h-157.69v-61.49zm195.696 101.49h-28v-20h28zm40-45.401c0 2.979-2.423 5.401-5.401 5.401h-33.322c-2.909 0-5.276-2.367-5.276-5.276v-177.448c0-2.909 2.367-5.276 5.276-5.276h33.322c2.979 0 5.401 2.423 5.401 5.401z"/><path id="XMLID_1017_" d="m502 0h-160c-5.523 0-10 4.478-10 10v120c0 5.522 4.477 10 10 10h160c5.523 0 10-4.478 10-10v-120c0-5.522-4.477-10-10-10zm-10 20v46.774l-23.438-23.438c-3.905-3.904-10.237-3.904-14.143 0l-24.72 24.72-12.878-12.878c-3.905-3.904-10.237-3.904-14.143 0l-50.678 50.679v-85.857zm-38.643 100h-87.215l43.607-43.607zm28.286 0-37.801-37.801 17.649-17.649 30.509 30.509v24.941z"/><path id="XMLID_1027_" d="m69 138c38.047 0 69-30.953 69-69s-30.953-69-69-69-69 30.953-69 69 30.953 69 69 69zm0-118c27.019 0 49 21.981 49 49s-21.981 49-49 49-49-21.981-49-49 21.981-49 49-49z"/><path id="XMLID_1037_" d="m69 97.5c5.523 0 10-4.478 10-10v-14.357l4.196-4.196c3.905-3.905 3.905-10.237 0-14.143-3.905-3.904-10.237-3.904-14.143 0l-7.125 7.125c-1.874 1.876-2.928 4.419-2.928 7.071v18.5c0 5.522 4.477 10 10 10z"/><path id="XMLID_1038_" d="m10 368c2.63 0 5.21-1.07 7.07-2.931 1.86-1.859 2.93-4.439 2.93-7.069s-1.07-5.21-2.93-7.07-4.44-2.93-7.07-2.93-5.21 1.069-7.07 2.93c-1.86 1.86-2.93 4.44-2.93 7.07s1.07 5.21 2.93 7.069c1.86 1.861 4.44 2.931 7.07 2.931z"/></g></g></svg>